<svg width="27" height="27" viewBox="0 0 27 27" fill="none" xmlns="http://www.w3.org/2000/svg">
<path d="M25 13.5C25 14.0523 25.4477 14.5 26 14.5C26.5523 14.5 27 14.0523 27 13.5H25ZM2 13.5C2 12.9477 1.55228 12.5 1 12.5C0.447715 12.5 0 12.9477 0 13.5H2ZM4.42265 5.41177L3.46138 5.13617L2.40262 8.82912L5.12756 6.12107L4.42265 5.41177ZM22.5773 21.5882L23.5386 21.8638L24.5974 18.1709L21.8724 20.8789L22.5773 21.5882ZM6.64877 1.2756C6.80098 0.744699 6.49399 0.190933 5.9631 0.0387263C5.4322 -0.113481 4.87843 0.193508 4.72623 0.724405L6.64877 1.2756ZM20.3512 25.7244C20.199 26.2553 20.506 26.8091 21.0369 26.9613C21.5678 27.1135 22.1216 26.8065 22.2738 26.2756L20.3512 25.7244ZM13.5 2.73529C19.9093 2.73529 25 7.61107 25 13.5H27C27 6.394 20.8979 0.735294 13.5 0.735294V2.73529ZM13.5 24.2647C7.09075 24.2647 2 19.3889 2 13.5H0C0 20.606 6.10213 26.2647 13.5 26.2647V24.2647ZM5.12756 6.12107C7.21959 4.04201 10.1909 2.73529 13.5 2.73529V0.735294C9.65951 0.735294 6.18225 2.25324 3.71775 4.70246L5.12756 6.12107ZM21.8724 20.8789C19.7804 22.958 16.8091 24.2647 13.5 24.2647V26.2647C17.3405 26.2647 20.8177 24.7468 23.2822 22.2975L21.8724 20.8789ZM5.38393 5.68736L6.64877 1.2756L4.72623 0.724405L3.46138 5.13617L5.38393 5.68736ZM21.6161 21.3126L20.3512 25.7244L22.2738 26.2756L23.5386 21.8638L21.6161 21.3126Z" fill="white"/>
</svg>
