<svg width="60" height="60" viewBox="0 0 60 60" fill="none" xmlns="http://www.w3.org/2000/svg">
<circle cx="30" cy="30" r="30" fill="url(#paint0_linear_1_261)"/>
<path d="M30.5 42C29.9477 42 29.5 42.4477 29.5 43C29.5 43.5523 29.9477 44 30.5 44V42ZM30.5 19C31.0523 19 31.5 18.5523 31.5 18C31.5 17.4477 31.0523 17 30.5 17V19ZM38.5882 21.4227L38.8638 20.4614L35.1709 19.4026L37.8789 22.1276L38.5882 21.4227ZM22.4118 39.5773L22.1362 40.5386L25.8291 41.5974L23.1211 38.8724L22.4118 39.5773ZM42.7244 23.6488C43.2553 23.801 43.8091 23.494 43.9613 22.9631C44.1135 22.4322 43.8065 21.8784 43.2756 21.7262L42.7244 23.6488ZM18.2756 37.3512C17.7447 37.199 17.1909 37.506 17.0387 38.0369C16.8865 38.5678 17.1935 39.1216 17.7244 39.2738L18.2756 37.3512ZM41.2647 30.5C41.2647 36.9093 36.3889 42 30.5 42V44C37.606 44 43.2647 37.8979 43.2647 30.5H41.2647ZM19.7353 30.5C19.7353 24.0907 24.6111 19 30.5 19V17C23.394 17 17.7353 23.1021 17.7353 30.5H19.7353ZM37.8789 22.1276C39.958 24.2196 41.2647 27.1909 41.2647 30.5H43.2647C43.2647 26.6595 41.7468 23.1823 39.2975 20.7177L37.8789 22.1276ZM23.1211 38.8724C21.042 36.7804 19.7353 33.8091 19.7353 30.5H17.7353C17.7353 34.3405 19.2532 37.8177 21.7025 40.2822L23.1211 38.8724ZM38.3126 22.3839L42.7244 23.6488L43.2756 21.7262L38.8638 20.4614L38.3126 22.3839ZM22.6874 38.6161L18.2756 37.3512L17.7244 39.2738L22.1362 40.5386L22.6874 38.6161Z" fill="white"/>
<defs>
<linearGradient id="paint0_linear_1_261" x1="31.0332" y1="129.452" x2="-29.4607" y2="110.096" gradientUnits="userSpaceOnUse">
<stop stop-color="#F58656"/>
<stop offset="1" stop-color="#FE5626"/>
</linearGradient>
</defs>
</svg>
